<?xml version="1.0" encoding="utf-8"?>
<svg viewBox="0 0 1024 1024" style="enable-background:new 0 0 1025 1025;" xmlns="http://www.w3.org/2000/svg">
  <defs>
    <style type="text/css">
	.st0{fill:#00E6E2;}
	.st1{opacity:0.4;fill:url(#SVGID_1_);}
	.st2{opacity:0.47;fill:url(#SVGID_2_);}
	.st3{opacity:0.43;fill:#FFFFFF;}
</style>
  </defs>
  <linearGradient id="SVGID_1_" gradientUnits="userSpaceOnUse" x1="448.3333" y1="399.9753" x2="448.3333" y2="171.9818" gradientTransform="matrix(1, 0, 0, 0.953537, 0, 17.600121)">
    <stop offset="0" style="stop-color:#000000"/>
    <stop offset="1" style="stop-color:#000000;stop-opacity:0"/>
  </linearGradient>
  <linearGradient id="SVGID_2_" gradientUnits="userSpaceOnUse" x1="448" y1="206.485" x2="448" y2="362.8302">
    <stop offset="0" style="stop-color:#FFFFFF"/>
    <stop offset="1" style="stop-color:#FFFFFF;stop-opacity:0"/>
  </linearGradient>
<!--  <rect x="0" y="0" width="1024" height="1024" fill="lightblue"/>  -->
  <g transform="scale(4.9) translate(-343, -185)">
  <path class="st0" d="M 447.769 229.837 C 430.634 181.721 337.566 192.9 348.291 263.5 C 356.336 308.332 448.332 378.8 448.332 378.8 C 448.332 378.8 522.037 321.42 547.784 265.529 C 557.444 191.886 464.368 185.779 447.769 229.837 Z" style=""/>
  <path class="st1" d="M 448.3 240.19 C 423.497 180.507 339.629 194.943 348.807 268.857 C 373.058 320.548 448.3 378.8 448.3 378.8 C 448.3 378.8 526.078 313.859 546.271 266.321 C 550.377 199.001 472.052 181.014 448.3 240.19 Z" style=""/>
  <path class="st2" d="M 545 250.6 C 541 217.6 517.536 205.314 492.236 204.314 C 466.936 203.314 448 232.715 448 232.715 C 448 232.715 431.193 202.807 405.793 203.807 C 380.493 204.807 355 217.6 351 250.6 C 351 250.6 350 257.586 352.3 267.6 C 352.3 267.6 386.1 305 447.6 307.2 C 447.7 307.2 447.8 307.2 447.9 307.2 C 448 307.2 448.1 307.2 448.2 307.2 C 509.8 304.9 543.5 267.6 543.5 267.6 C 546 258.6 545 250.6 545 250.6 Z"/>
  <path class="st3" d="M 404.473 216.3 C 398.933 216.8 390.152 219.6 381.58 230.3 C 367.259 248 369.036 267.6 366.213 267.3 C 363.391 267 355.028 253 366.527 229.6 C 374.994 212.5 395.065 207.9 404.891 210.8 C 408.446 211.8 408.132 215.9 404.473 216.3 Z" style=""/>
  </g>
</svg>